# xmcd CD database file
#
# Track frame offsets:
#	150
#	19846
#	38664
#	56368
#	75089
#	94165
#	121428
#	140000
#	159403
#	177302
#	196929
#	219155
#	235563
#
# Disc length: 3474 seconds
#
# Revision: 2
# Processed by: cddbd v1.5.1PL0 Copyright (c) Steve Scherf et al.
# Submitted via: CDex 1.51
#
DISCID=9a0d900d
DTITLE=董沁 - 野百合•春天
DYEAR=2004
DGENRE=Jazz
TTITLE0=野百合也有春天
TTITLE1=藍藍的夜、藍藍的夢
TTITLE2=今宵多珍重
TTITLE3=淚的小雨
TTITLE4=月滿西樓
TTITLE5=那一場風花雪月的事
TTITLE6=滾滾紅塵
TTITLE7=何日君再來
TTITLE8=來自心海的消息
TTITLE9=這樣愛你對不對
TTITLE10=親蜜愛人
TTITLE11=如果沒有你
TTITLE12=小妹
EXTD=YEAR: 2004
EXTT0=
EXTT1=
EXTT2=
EXTT3=
EXTT4=
EXTT5=
EXTT6=
EXTT7=
EXTT8=
EXTT9=
EXTT10=
EXTT11=
EXTT12=
PLAYORDER=
